<?xml version="1.0" encoding="utf-8" ?>
<svg baseProfile="full" height="100%" version="1.1" width="100%" xmlns="http://www.w3.org/2000/svg" xmlns:ev="http://www.w3.org/2001/xml-events" xmlns:xlink="http://www.w3.org/1999/xlink"><defs /><rect fill="black" height="25" width="25" x="0" y="0" /><text alignment-baseline="middle" fill="white" font-size="7" text-anchor="middle" x="12.5" y="12.5" /><rect fill="black" height="25" width="25" x="30" y="0" /><text alignment-baseline="middle" fill="white" font-size="7" text-anchor="middle" x="42.5" y="12.5" /><rect fill="black" height="25" width="25" x="60" y="0" /><text alignment-baseline="middle" fill="white" font-size="7" text-anchor="middle" x="72.5" y="12.5" /><rect fill="black" height="25" width="25" x="90" y="0" /><text alignment-baseline="middle" fill="white" font-size="7" text-anchor="middle" x="102.5" y="12.5" /><rect fill="black" height="25" width="25" x="120" y="0" /><text alignment-baseline="middle" fill="white" font-size="7" text-anchor="middle" x="132.5" y="12.5" /><rect fill="black" height="25" width="25" x="150" y="0" /><text alignment-baseline="middle" fill="white" font-size="7" text-anchor="middle" x="162.5" y="12.5" /><rect fill="black" height="25" width="25" x="180" y="0" /><text alignment-baseline="middle" fill="white" font-size="7" text-anchor="middle" x="192.5" y="12.5" /><rect fill="black" height="25" width="25" x="210" y="0" /><text alignment-baseline="middle" fill="white" font-size="7" text-anchor="middle" x="222.5" y="12.5" /><rect fill="black" height="25" width="25" x="240" y="0" /><text alignment-baseline="middle" fill="white" font-size="7" text-anchor="middle" x="252.5" y="12.5" /><rect fill="black" height="25" width="25" x="270" y="0" /><text alignment-baseline="middle" fill="white" font-size="7" text-anchor="middle" x="282.5" y="12.5" /><rect fill="black" height="25" width="25" x="300" y="0" /><text alignment-baseline="middle" fill="white" font-size="7" text-anchor="middle" x="312.5" y="12.5" /><rect fill="black" height="25" width="25" x="330" y="0" /><text alignment-baseline="middle" fill="white" font-size="7" text-anchor="middle" x="342.5" y="12.5" /><rect fill="black" height="25" width="25" x="360" y="0" /><text alignment-baseline="middle" fill="white" font-size="7" text-anchor="middle" x="372.5" y="12.5" /><rect fill="black" height="25" width="25" x="390" y="0" /><text alignment-baseline="middle" fill="white" font-size="7" text-anchor="middle" x="402.5" y="12.5" /><rect fill="black" height="25" width="25" x="420" y="0" /><text alignment-baseline="middle" fill="white" font-size="7" text-anchor="middle" x="432.5" y="12.5" /><rect fill="black" height="25" width="25" x="0" y="30" /><text alignment-baseline="middle" fill="white" font-size="7" text-anchor="middle" x="12.5" y="42.5" /><rect fill="black" height="25" width="25" x="30" y="30" /><text alignment-baseline="middle" fill="white" font-size="7" text-anchor="middle" x="42.5" y="42.5" /><rect fill="black" height="25" width="25" x="60" y="30" /><text alignment-baseline="middle" fill="white" font-size="7" text-anchor="middle" x="72.5" y="42.5" /><rect fill="black" height="25" width="25" x="90" y="30" /><text alignment-baseline="middle" fill="white" font-size="7" text-anchor="middle" x="102.5" y="42.5" /><rect fill="black" height="25" width="25" x="120" y="30" /><text alignment-baseline="middle" fill="white" font-size="7" text-anchor="middle" x="132.5" y="42.5" /><rect fill="black" height="25" width="25" x="150" y="30" /><text alignment-baseline="middle" fill="white" font-size="7" text-anchor="middle" x="162.5" y="42.5" /><rect fill="black" height="25" width="25" x="180" y="30" /><text alignment-baseline="middle" fill="white" font-size="7" text-anchor="middle" x="192.5" y="42.5" /><rect fill="black" height="25" width="25" x="210" y="30" /><text alignment-baseline="middle" fill="white" font-size="7" text-anchor="middle" x="222.5" y="42.5" /><rect fill="black" height="25" width="25" x="240" y="30" /><text alignment-baseline="middle" fill="white" font-size="7" text-anchor="middle" x="252.5" y="42.5" /><rect fill="black" height="25" width="25" x="270" y="30" /><text alignment-baseline="middle" fill="white" font-size="7" text-anchor="middle" x="282.5" y="42.5" /><rect fill="black" height="25" width="25" x="300" y="30" /><text alignment-baseline="middle" fill="white" font-size="7" text-anchor="middle" x="312.5" y="42.5" /><rect fill="black" height="25" width="25" x="330" y="30" /><text alignment-baseline="middle" fill="white" font-size="7" text-anchor="middle" x="342.5" y="42.5" /><rect fill="black" height="25" width="25" x="360" y="30" /><text alignment-baseline="middle" fill="white" font-size="7" text-anchor="middle" x="372.5" y="42.5" /><rect fill="black" height="25" width="25" x="390" y="30" /><text alignment-baseline="middle" fill="white" font-size="7" text-anchor="middle" x="402.5" y="42.5" /><rect fill="black" height="25" width="25" x="420" y="30" /><text alignment-baseline="middle" fill="white" font-size="7" text-anchor="middle" x="432.5" y="42.5" /><rect fill="black" height="25" width="25" x="0" y="60" /><text alignment-baseline="middle" fill="white" font-size="7" text-anchor="middle" x="12.5" y="72.5" /><rect fill="black" height="25" width="25" x="30" y="60" /><text alignment-baseline="middle" fill="white" font-size="7" text-anchor="middle" x="42.5" y="72.5" /><rect fill="black" height="25" width="25" x="60" y="60" /><text alignment-baseline="middle" fill="white" font-size="7" text-anchor="middle" x="72.5" y="72.5" /><rect fill="black" height="25" width="25" x="90" y="60" /><text alignment-baseline="middle" fill="white" font-size="7" text-anchor="middle" x="102.5" y="72.5" /><rect fill="red" height="25" width="25" x="120" y="60" /><text alignment-baseline="middle" fill="white" font-size="7" text-anchor="middle" x="132.5" y="72.5">3</text><rect fill="red" height="25" width="25" x="150" y="60" /><text alignment-baseline="middle" fill="white" font-size="7" text-anchor="middle" x="162.5" y="72.5">2</text><rect fill="red" height="25" width="25" x="180" y="60" /><text alignment-baseline="middle" fill="white" font-size="7" text-anchor="middle" x="192.5" y="72.5">4</text><rect fill="red" height="25" width="25" x="210" y="60" /><text alignment-baseline="middle" fill="white" font-size="7" text-anchor="middle" x="222.5" y="72.5">3</text><rect fill="red" height="25" width="25" x="240" y="60" /><text alignment-baseline="middle" fill="white" font-size="7" text-anchor="middle" x="252.5" y="72.5">3</text><rect fill="red" height="25" width="25" x="270" y="60" /><text alignment-baseline="middle" fill="white" font-size="7" text-anchor="middle" x="282.5" y="72.5">2</text><rect fill="red" height="25" width="25" x="300" y="60" /><text alignment-baseline="middle" fill="white" font-size="7" text-anchor="middle" x="312.5" y="72.5">1</text><rect fill="black" height="25" width="25" x="330" y="60" /><text alignment-baseline="middle" fill="white" font-size="7" text-anchor="middle" x="342.5" y="72.5" /><rect fill="black" height="25" width="25" x="360" y="60" /><text alignment-baseline="middle" fill="white" font-size="7" text-anchor="middle" x="372.5" y="72.5" /><rect fill="black" height="25" width="25" x="390" y="60" /><text alignment-baseline="middle" fill="white" font-size="7" text-anchor="middle" x="402.5" y="72.5" /><rect fill="black" height="25" width="25" x="420" y="60" /><text alignment-baseline="middle" fill="white" font-size="7" text-anchor="middle" x="432.5" y="72.5" /><rect fill="black" height="25" width="25" x="0" y="90" /><text alignment-baseline="middle" fill="white" font-size="7" text-anchor="middle" x="12.5" y="102.5" /><rect fill="black" height="25" width="25" x="30" y="90" /><text alignment-baseline="middle" fill="white" font-size="7" text-anchor="middle" x="42.5" y="102.5" /><rect fill="black" height="25" width="25" x="60" y="90" /><text alignment-baseline="middle" fill="white" font-size="7" text-anchor="middle" x="72.5" y="102.5" /><rect fill="red" height="25" width="25" x="90" y="90" /><text alignment-baseline="middle" fill="white" font-size="7" text-anchor="middle" x="102.5" y="102.5">1</text><rect fill="red" height="25" width="25" x="120" y="90" /><text alignment-baseline="middle" fill="white" font-size="7" text-anchor="middle" x="132.5" y="102.5">1</text><rect fill="red" height="25" width="25" x="150" y="90" /><text alignment-baseline="middle" fill="white" font-size="7" text-anchor="middle" x="162.5" y="102.5">4</text><rect fill="red" height="25" width="25" x="180" y="90" /><text alignment-baseline="middle" fill="white" font-size="7" text-anchor="middle" x="192.5" y="102.5">8</text><rect fill="red" height="25" width="25" x="210" y="90" /><text alignment-baseline="middle" fill="white" font-size="7" text-anchor="middle" x="222.5" y="102.5">8</text><rect fill="red" height="25" width="25" x="240" y="90" /><text alignment-baseline="middle" fill="white" font-size="7" text-anchor="middle" x="252.5" y="102.5">2</text><rect fill="red" height="25" width="25" x="270" y="90" /><text alignment-baseline="middle" fill="white" font-size="7" text-anchor="middle" x="282.5" y="102.5">2</text><rect fill="red" height="25" width="25" x="300" y="90" /><text alignment-baseline="middle" fill="white" font-size="7" text-anchor="middle" x="312.5" y="102.5">1</text><rect fill="red" height="25" width="25" x="330" y="90" /><text alignment-baseline="middle" fill="white" font-size="7" text-anchor="middle" x="342.5" y="102.5">1</text><rect fill="black" height="25" width="25" x="360" y="90" /><text alignment-baseline="middle" fill="white" font-size="7" text-anchor="middle" x="372.5" y="102.5" /><rect fill="black" height="25" width="25" x="390" y="90" /><text alignment-baseline="middle" fill="white" font-size="7" text-anchor="middle" x="402.5" y="102.5" /><rect fill="black" height="25" width="25" x="420" y="90" /><text alignment-baseline="middle" fill="white" font-size="7" text-anchor="middle" x="432.5" y="102.5" /><rect fill="black" height="25" width="25" x="0" y="120" /><text alignment-baseline="middle" fill="white" font-size="7" text-anchor="middle" x="12.5" y="132.5" /><rect fill="black" height="25" width="25" x="30" y="120" /><text alignment-baseline="middle" fill="white" font-size="7" text-anchor="middle" x="42.5" y="132.5" /><rect fill="red" height="25" width="25" x="60" y="120" /><text alignment-baseline="middle" fill="white" font-size="7" text-anchor="middle" x="72.5" y="132.5">3</text><rect fill="red" height="25" width="25" x="90" y="120" /><text alignment-baseline="middle" fill="white" font-size="7" text-anchor="middle" x="102.5" y="132.5">1</text><rect fill="red" height="25" width="25" x="120" y="120" /><text alignment-baseline="middle" fill="white" font-size="7" text-anchor="middle" x="132.5" y="132.5">3</text><rect fill="red" height="25" width="25" x="150" y="120" /><text alignment-baseline="middle" fill="white" font-size="7" text-anchor="middle" x="162.5" y="132.5">6</text><rect fill="red" height="25" width="25" x="180" y="120" /><text alignment-baseline="middle" fill="white" font-size="7" text-anchor="middle" x="192.5" y="132.5">11</text><rect fill="red" height="25" width="25" x="210" y="120" /><text alignment-baseline="middle" fill="white" font-size="7" text-anchor="middle" x="222.5" y="132.5">12</text><rect fill="red" height="25" width="25" x="240" y="120" /><text alignment-baseline="middle" fill="white" font-size="7" text-anchor="middle" x="252.5" y="132.5">7</text><rect fill="red" height="25" width="25" x="270" y="120" /><text alignment-baseline="middle" fill="white" font-size="7" text-anchor="middle" x="282.5" y="132.5">5</text><rect fill="red" height="25" width="25" x="300" y="120" /><text alignment-baseline="middle" fill="white" font-size="7" text-anchor="middle" x="312.5" y="132.5">1</text><rect fill="red" height="25" width="25" x="330" y="120" /><text alignment-baseline="middle" fill="white" font-size="7" text-anchor="middle" x="342.5" y="132.5">3</text><rect fill="red" height="25" width="25" x="360" y="120" /><text alignment-baseline="middle" fill="white" font-size="7" text-anchor="middle" x="372.5" y="132.5">1</text><rect fill="black" height="25" width="25" x="390" y="120" /><text alignment-baseline="middle" fill="white" font-size="7" text-anchor="middle" x="402.5" y="132.5" /><rect fill="black" height="25" width="25" x="420" y="120" /><text alignment-baseline="middle" fill="white" font-size="7" text-anchor="middle" x="432.5" y="132.5" /><rect fill="black" height="25" width="25" x="0" y="150" /><text alignment-baseline="middle" fill="white" font-size="7" text-anchor="middle" x="12.5" y="162.5" /><rect fill="black" height="25" width="25" x="30" y="150" /><text alignment-baseline="middle" fill="white" font-size="7" text-anchor="middle" x="42.5" y="162.5" /><rect fill="red" height="25" width="25" x="60" y="150" /><text alignment-baseline="middle" fill="white" font-size="7" text-anchor="middle" x="72.5" y="162.5">4</text><rect fill="red" height="25" width="25" x="90" y="150" /><text alignment-baseline="middle" fill="white" font-size="7" text-anchor="middle" x="102.5" y="162.5">3</text><rect fill="red" height="25" width="25" x="120" y="150" /><text alignment-baseline="middle" fill="white" font-size="7" text-anchor="middle" x="132.5" y="162.5">3</text><rect fill="red" height="25" width="25" x="150" y="150" /><text alignment-baseline="middle" fill="white" font-size="7" text-anchor="middle" x="162.5" y="162.5">3</text><rect fill="red" height="25" width="25" x="180" y="150" /><text alignment-baseline="middle" fill="white" font-size="7" text-anchor="middle" x="192.5" y="162.5">4</text><rect fill="red" height="25" width="25" x="210" y="150" /><text alignment-baseline="middle" fill="white" font-size="7" text-anchor="middle" x="222.5" y="162.5">10</text><rect fill="red" height="25" width="25" x="240" y="150" /><text alignment-baseline="middle" fill="white" font-size="7" text-anchor="middle" x="252.5" y="162.5">1</text><rect fill="red" height="25" width="25" x="270" y="150" /><text alignment-baseline="middle" fill="white" font-size="7" text-anchor="middle" x="282.5" y="162.5">11</text><rect fill="red" height="25" width="25" x="300" y="150" /><text alignment-baseline="middle" fill="white" font-size="7" text-anchor="middle" x="312.5" y="162.5">7</text><rect fill="red" height="25" width="25" x="330" y="150" /><text alignment-baseline="middle" fill="white" font-size="7" text-anchor="middle" x="342.5" y="162.5">4</text><rect fill="red" height="25" width="25" x="360" y="150" /><text alignment-baseline="middle" fill="white" font-size="7" text-anchor="middle" x="372.5" y="162.5">4</text><rect fill="black" height="25" width="25" x="390" y="150" /><text alignment-baseline="middle" fill="white" font-size="7" text-anchor="middle" x="402.5" y="162.5" /><rect fill="black" height="25" width="25" x="420" y="150" /><text alignment-baseline="middle" fill="white" font-size="7" text-anchor="middle" x="432.5" y="162.5" /><rect fill="black" height="25" width="25" x="0" y="180" /><text alignment-baseline="middle" fill="white" font-size="7" text-anchor="middle" x="12.5" y="192.5" /><rect fill="black" height="25" width="25" x="30" y="180" /><text alignment-baseline="middle" fill="white" font-size="7" text-anchor="middle" x="42.5" y="192.5" /><rect fill="red" height="25" width="25" x="60" y="180" /><text alignment-baseline="middle" fill="white" font-size="7" text-anchor="middle" x="72.5" y="192.5">3</text><rect fill="red" height="25" width="25" x="90" y="180" /><text alignment-baseline="middle" fill="white" font-size="7" text-anchor="middle" x="102.5" y="192.5">7</text><rect fill="red" height="25" width="25" x="120" y="180" /><text alignment-baseline="middle" fill="white" font-size="7" text-anchor="middle" x="132.5" y="192.5">12</text><rect fill="red" height="25" width="25" x="150" y="180" /><text alignment-baseline="middle" fill="white" font-size="7" text-anchor="middle" x="162.5" y="192.5">9</text><rect fill="red" height="25" width="25" x="180" y="180" /><text alignment-baseline="middle" fill="white" font-size="7" text-anchor="middle" x="192.5" y="192.5">14</text><rect fill="red" height="25" width="25" x="210" y="180" /><text alignment-baseline="middle" fill="white" font-size="7" text-anchor="middle" x="222.5" y="192.5">2</text><rect fill="red" height="25" width="25" x="240" y="180" /><text alignment-baseline="middle" fill="white" font-size="7" text-anchor="middle" x="252.5" y="192.5">10</text><rect fill="red" height="25" width="25" x="270" y="180" /><text alignment-baseline="middle" fill="white" font-size="7" text-anchor="middle" x="282.5" y="192.5">3</text><rect fill="red" height="25" width="25" x="300" y="180" /><text alignment-baseline="middle" fill="white" font-size="7" text-anchor="middle" x="312.5" y="192.5">6</text><rect fill="red" height="25" width="25" x="330" y="180" /><text alignment-baseline="middle" fill="white" font-size="7" text-anchor="middle" x="342.5" y="192.5">2</text><rect fill="red" height="25" width="25" x="360" y="180" /><text alignment-baseline="middle" fill="white" font-size="7" text-anchor="middle" x="372.5" y="192.5">2</text><rect fill="black" height="25" width="25" x="390" y="180" /><text alignment-baseline="middle" fill="white" font-size="7" text-anchor="middle" x="402.5" y="192.5" /><rect fill="black" height="25" width="25" x="420" y="180" /><text alignment-baseline="middle" fill="white" font-size="7" text-anchor="middle" x="432.5" y="192.5" /><rect fill="black" height="25" width="25" x="0" y="210" /><text alignment-baseline="middle" fill="white" font-size="7" text-anchor="middle" x="12.5" y="222.5" /><rect fill="black" height="25" width="25" x="30" y="210" /><text alignment-baseline="middle" fill="white" font-size="7" text-anchor="middle" x="42.5" y="222.5" /><rect fill="red" height="25" width="25" x="60" y="210" /><text alignment-baseline="middle" fill="white" font-size="7" text-anchor="middle" x="72.5" y="222.5">4</text><rect fill="red" height="25" width="25" x="90" y="210" /><text alignment-baseline="middle" fill="white" font-size="7" text-anchor="middle" x="102.5" y="222.5">8</text><rect fill="red" height="25" width="25" x="120" y="210" /><text alignment-baseline="middle" fill="white" font-size="7" text-anchor="middle" x="132.5" y="222.5">4</text><rect fill="red" height="25" width="25" x="150" y="210" /><text alignment-baseline="middle" fill="white" font-size="7" text-anchor="middle" x="162.5" y="222.5">11</text><rect fill="red" height="25" width="25" x="180" y="210" /><text alignment-baseline="middle" fill="white" font-size="7" text-anchor="middle" x="192.5" y="222.5">13</text><rect fill="red" height="25" width="25" x="210" y="210" /><text alignment-baseline="middle" fill="white" font-size="7" text-anchor="middle" x="222.5" y="222.5">17</text><rect fill="red" height="25" width="25" x="240" y="210" /><text alignment-baseline="middle" fill="white" font-size="7" text-anchor="middle" x="252.5" y="222.5">13</text><rect fill="red" height="25" width="25" x="270" y="210" /><text alignment-baseline="middle" fill="white" font-size="7" text-anchor="middle" x="282.5" y="222.5">5</text><rect fill="red" height="25" width="25" x="300" y="210" /><text alignment-baseline="middle" fill="white" font-size="7" text-anchor="middle" x="312.5" y="222.5">10</text><rect fill="red" height="25" width="25" x="330" y="210" /><text alignment-baseline="middle" fill="white" font-size="7" text-anchor="middle" x="342.5" y="222.5">3</text><rect fill="red" height="25" width="25" x="360" y="210" /><text alignment-baseline="middle" fill="white" font-size="7" text-anchor="middle" x="372.5" y="222.5">4</text><rect fill="black" height="25" width="25" x="390" y="210" /><text alignment-baseline="middle" fill="white" font-size="7" text-anchor="middle" x="402.5" y="222.5" /><rect fill="black" height="25" width="25" x="420" y="210" /><text alignment-baseline="middle" fill="white" font-size="7" text-anchor="middle" x="432.5" y="222.5" /><rect fill="black" height="25" width="25" x="0" y="240" /><text alignment-baseline="middle" fill="white" font-size="7" text-anchor="middle" x="12.5" y="252.5" /><rect fill="black" height="25" width="25" x="30" y="240" /><text alignment-baseline="middle" fill="white" font-size="7" text-anchor="middle" x="42.5" y="252.5" /><rect fill="red" height="25" width="25" x="60" y="240" /><text alignment-baseline="middle" fill="white" font-size="7" text-anchor="middle" x="72.5" y="252.5">4</text><rect fill="red" height="25" width="25" x="90" y="240" /><text alignment-baseline="middle" fill="white" font-size="7" text-anchor="middle" x="102.5" y="252.5">3</text><rect fill="red" height="25" width="25" x="120" y="240" /><text alignment-baseline="middle" fill="white" font-size="7" text-anchor="middle" x="132.5" y="252.5">10</text><rect fill="red" height="25" width="25" x="150" y="240" /><text alignment-baseline="middle" fill="white" font-size="7" text-anchor="middle" x="162.5" y="252.5">1</text><rect fill="red" height="25" width="25" x="180" y="240" /><text alignment-baseline="middle" fill="white" font-size="7" text-anchor="middle" x="192.5" y="252.5">12</text><rect fill="red" height="25" width="25" x="210" y="240" /><text alignment-baseline="middle" fill="white" font-size="7" text-anchor="middle" x="222.5" y="252.5">8</text><rect fill="red" height="25" width="25" x="240" y="240" /><text alignment-baseline="middle" fill="white" font-size="7" text-anchor="middle" x="252.5" y="252.5">3</text><rect fill="red" height="25" width="25" x="270" y="240" /><text alignment-baseline="middle" fill="white" font-size="7" text-anchor="middle" x="282.5" y="252.5">1</text><rect fill="red" height="25" width="25" x="300" y="240" /><text alignment-baseline="middle" fill="white" font-size="7" text-anchor="middle" x="312.5" y="252.5">6</text><rect fill="red" height="25" width="25" x="330" y="240" /><text alignment-baseline="middle" fill="white" font-size="7" text-anchor="middle" x="342.5" y="252.5">4</text><rect fill="red" height="25" width="25" x="360" y="240" /><text alignment-baseline="middle" fill="white" font-size="7" text-anchor="middle" x="372.5" y="252.5">3</text><rect fill="black" height="25" width="25" x="390" y="240" /><text alignment-baseline="middle" fill="white" font-size="7" text-anchor="middle" x="402.5" y="252.5" /><rect fill="black" height="25" width="25" x="420" y="240" /><text alignment-baseline="middle" fill="white" font-size="7" text-anchor="middle" x="432.5" y="252.5" /><rect fill="black" height="25" width="25" x="0" y="270" /><text alignment-baseline="middle" fill="white" font-size="7" text-anchor="middle" x="12.5" y="282.5" /><rect fill="black" height="25" width="25" x="30" y="270" /><text alignment-baseline="middle" fill="white" font-size="7" text-anchor="middle" x="42.5" y="282.5" /><rect fill="red" height="25" width="25" x="60" y="270" /><text alignment-baseline="middle" fill="white" font-size="7" text-anchor="middle" x="72.5" y="282.5">3</text><rect fill="red" height="25" width="25" x="90" y="270" /><text alignment-baseline="middle" fill="white" font-size="7" text-anchor="middle" x="102.5" y="282.5">6</text><rect fill="red" height="25" width="25" x="120" y="270" /><text alignment-baseline="middle" fill="white" font-size="7" text-anchor="middle" x="132.5" y="282.5">4</text><rect fill="red" height="25" width="25" x="150" y="270" /><text alignment-baseline="middle" fill="white" font-size="7" text-anchor="middle" x="162.5" y="282.5">8</text><rect fill="red" height="25" width="25" x="180" y="270" /><text alignment-baseline="middle" fill="white" font-size="7" text-anchor="middle" x="192.5" y="282.5">3</text><rect fill="red" height="25" width="25" x="210" y="270" /><text alignment-baseline="middle" fill="white" font-size="7" text-anchor="middle" x="222.5" y="282.5">3</text><rect fill="red" height="25" width="25" x="240" y="270" /><text alignment-baseline="middle" fill="white" font-size="7" text-anchor="middle" x="252.5" y="282.5">7</text><rect fill="red" height="25" width="25" x="270" y="270" /><text alignment-baseline="middle" fill="white" font-size="7" text-anchor="middle" x="282.5" y="282.5">7</text><rect fill="red" height="25" width="25" x="300" y="270" /><text alignment-baseline="middle" fill="white" font-size="7" text-anchor="middle" x="312.5" y="282.5">3</text><rect fill="red" height="25" width="25" x="330" y="270" /><text alignment-baseline="middle" fill="white" font-size="7" text-anchor="middle" x="342.5" y="282.5">5</text><rect fill="red" height="25" width="25" x="360" y="270" /><text alignment-baseline="middle" fill="white" font-size="7" text-anchor="middle" x="372.5" y="282.5">4</text><rect fill="black" height="25" width="25" x="390" y="270" /><text alignment-baseline="middle" fill="white" font-size="7" text-anchor="middle" x="402.5" y="282.5" /><rect fill="black" height="25" width="25" x="420" y="270" /><text alignment-baseline="middle" fill="white" font-size="7" text-anchor="middle" x="432.5" y="282.5" /><rect fill="black" height="25" width="25" x="0" y="300" /><text alignment-baseline="middle" fill="white" font-size="7" text-anchor="middle" x="12.5" y="312.5" /><rect fill="black" height="25" width="25" x="30" y="300" /><text alignment-baseline="middle" fill="white" font-size="7" text-anchor="middle" x="42.5" y="312.5" /><rect fill="red" height="25" width="25" x="60" y="300" /><text alignment-baseline="middle" fill="white" font-size="7" text-anchor="middle" x="72.5" y="312.5">3</text><rect fill="red" height="25" width="25" x="90" y="300" /><text alignment-baseline="middle" fill="white" font-size="7" text-anchor="middle" x="102.5" y="312.5">4</text><rect fill="red" height="25" width="25" x="120" y="300" /><text alignment-baseline="middle" fill="white" font-size="7" text-anchor="middle" x="132.5" y="312.5">7</text><rect fill="red" height="25" width="25" x="150" y="300" /><text alignment-baseline="middle" fill="white" font-size="7" text-anchor="middle" x="162.5" y="312.5">3</text><rect fill="red" height="25" width="25" x="180" y="300" /><text alignment-baseline="middle" fill="white" font-size="7" text-anchor="middle" x="192.5" y="312.5">6</text><rect fill="red" height="25" width="25" x="210" y="300" /><text alignment-baseline="middle" fill="white" font-size="7" text-anchor="middle" x="222.5" y="312.5">3</text><rect fill="red" height="25" width="25" x="240" y="300" /><text alignment-baseline="middle" fill="white" font-size="7" text-anchor="middle" x="252.5" y="312.5">1</text><rect fill="red" height="25" width="25" x="270" y="300" /><text alignment-baseline="middle" fill="white" font-size="7" text-anchor="middle" x="282.5" y="312.5">4</text><rect fill="red" height="25" width="25" x="300" y="300" /><text alignment-baseline="middle" fill="white" font-size="7" text-anchor="middle" x="312.5" y="312.5">7</text><rect fill="red" height="25" width="25" x="330" y="300" /><text alignment-baseline="middle" fill="white" font-size="7" text-anchor="middle" x="342.5" y="312.5">1</text><rect fill="red" height="25" width="25" x="360" y="300" /><text alignment-baseline="middle" fill="white" font-size="7" text-anchor="middle" x="372.5" y="312.5">2</text><rect fill="black" height="25" width="25" x="390" y="300" /><text alignment-baseline="middle" fill="white" font-size="7" text-anchor="middle" x="402.5" y="312.5" /><rect fill="black" height="25" width="25" x="420" y="300" /><text alignment-baseline="middle" fill="white" font-size="7" text-anchor="middle" x="432.5" y="312.5" /><rect fill="black" height="25" width="25" x="0" y="330" /><text alignment-baseline="middle" fill="white" font-size="7" text-anchor="middle" x="12.5" y="342.5" /><rect fill="black" height="25" width="25" x="30" y="330" /><text alignment-baseline="middle" fill="white" font-size="7" text-anchor="middle" x="42.5" y="342.5" /><rect fill="black" height="25" width="25" x="60" y="330" /><text alignment-baseline="middle" fill="white" font-size="7" text-anchor="middle" x="72.5" y="342.5" /><rect fill="red" height="25" width="25" x="90" y="330" /><text alignment-baseline="middle" fill="white" font-size="7" text-anchor="middle" x="102.5" y="342.5">2</text><rect fill="red" height="25" width="25" x="120" y="330" /><text alignment-baseline="middle" fill="white" font-size="7" text-anchor="middle" x="132.5" y="342.5">2</text><rect fill="red" height="25" width="25" x="150" y="330" /><text alignment-baseline="middle" fill="white" font-size="7" text-anchor="middle" x="162.5" y="342.5">1</text><rect fill="red" height="25" width="25" x="180" y="330" /><text alignment-baseline="middle" fill="white" font-size="7" text-anchor="middle" x="192.5" y="342.5">1</text><rect fill="red" height="25" width="25" x="210" y="330" /><text alignment-baseline="middle" fill="white" font-size="7" text-anchor="middle" x="222.5" y="342.5">4</text><rect fill="red" height="25" width="25" x="240" y="330" /><text alignment-baseline="middle" fill="white" font-size="7" text-anchor="middle" x="252.5" y="342.5">7</text><rect fill="red" height="25" width="25" x="270" y="330" /><text alignment-baseline="middle" fill="white" font-size="7" text-anchor="middle" x="282.5" y="342.5">7</text><rect fill="red" height="25" width="25" x="300" y="330" /><text alignment-baseline="middle" fill="white" font-size="7" text-anchor="middle" x="312.5" y="342.5">1</text><rect fill="red" height="25" width="25" x="330" y="330" /><text alignment-baseline="middle" fill="white" font-size="7" text-anchor="middle" x="342.5" y="342.5">4</text><rect fill="black" height="25" width="25" x="360" y="330" /><text alignment-baseline="middle" fill="white" font-size="7" text-anchor="middle" x="372.5" y="342.5" /><rect fill="black" height="25" width="25" x="390" y="330" /><text alignment-baseline="middle" fill="white" font-size="7" text-anchor="middle" x="402.5" y="342.5" /><rect fill="black" height="25" width="25" x="420" y="330" /><text alignment-baseline="middle" fill="white" font-size="7" text-anchor="middle" x="432.5" y="342.5" /><rect fill="black" height="25" width="25" x="0" y="360" /><text alignment-baseline="middle" fill="white" font-size="7" text-anchor="middle" x="12.5" y="372.5" /><rect fill="black" height="25" width="25" x="30" y="360" /><text alignment-baseline="middle" fill="white" font-size="7" text-anchor="middle" x="42.5" y="372.5" /><rect fill="black" height="25" width="25" x="60" y="360" /><text alignment-baseline="middle" fill="white" font-size="7" text-anchor="middle" x="72.5" y="372.5" /><rect fill="black" height="25" width="25" x="90" y="360" /><text alignment-baseline="middle" fill="white" font-size="7" text-anchor="middle" x="102.5" y="372.5" /><rect fill="red" height="25" width="25" x="120" y="360" /><text alignment-baseline="middle" fill="white" font-size="7" text-anchor="middle" x="132.5" y="372.5">2</text><rect fill="red" height="25" width="25" x="150" y="360" /><text alignment-baseline="middle" fill="white" font-size="7" text-anchor="middle" x="162.5" y="372.5">4</text><rect fill="red" height="25" width="25" x="180" y="360" /><text alignment-baseline="middle" fill="white" font-size="7" text-anchor="middle" x="192.5" y="372.5">1</text><rect fill="red" height="25" width="25" x="210" y="360" /><text alignment-baseline="middle" fill="white" font-size="7" text-anchor="middle" x="222.5" y="372.5">3</text><rect fill="red" height="25" width="25" x="240" y="360" /><text alignment-baseline="middle" fill="white" font-size="7" text-anchor="middle" x="252.5" y="372.5">1</text><rect fill="red" height="25" width="25" x="270" y="360" /><text alignment-baseline="middle" fill="white" font-size="7" text-anchor="middle" x="282.5" y="372.5">2</text><rect fill="red" height="25" width="25" x="300" y="360" /><text alignment-baseline="middle" fill="white" font-size="7" text-anchor="middle" x="312.5" y="372.5">2</text><rect fill="black" height="25" width="25" x="330" y="360" /><text alignment-baseline="middle" fill="white" font-size="7" text-anchor="middle" x="342.5" y="372.5" /><rect fill="black" height="25" width="25" x="360" y="360" /><text alignment-baseline="middle" fill="white" font-size="7" text-anchor="middle" x="372.5" y="372.5" /><rect fill="black" height="25" width="25" x="390" y="360" /><text alignment-baseline="middle" fill="white" font-size="7" text-anchor="middle" x="402.5" y="372.5" /><rect fill="black" height="25" width="25" x="420" y="360" /><text alignment-baseline="middle" fill="white" font-size="7" text-anchor="middle" x="432.5" y="372.5" /><rect fill="black" height="25" width="25" x="0" y="390" /><text alignment-baseline="middle" fill="white" font-size="7" text-anchor="middle" x="12.5" y="402.5" /><rect fill="black" height="25" width="25" x="30" y="390" /><text alignment-baseline="middle" fill="white" font-size="7" text-anchor="middle" x="42.5" y="402.5" /><rect fill="black" height="25" width="25" x="60" y="390" /><text alignment-baseline="middle" fill="white" font-size="7" text-anchor="middle" x="72.5" y="402.5" /><rect fill="black" height="25" width="25" x="90" y="390" /><text alignment-baseline="middle" fill="white" font-size="7" text-anchor="middle" x="102.5" y="402.5" /><rect fill="black" height="25" width="25" x="120" y="390" /><text alignment-baseline="middle" fill="white" font-size="7" text-anchor="middle" x="132.5" y="402.5" /><rect fill="black" height="25" width="25" x="150" y="390" /><text alignment-baseline="middle" fill="white" font-size="7" text-anchor="middle" x="162.5" y="402.5" /><rect fill="black" height="25" width="25" x="180" y="390" /><text alignment-baseline="middle" fill="white" font-size="7" text-anchor="middle" x="192.5" y="402.5" /><rect fill="black" height="25" width="25" x="210" y="390" /><text alignment-baseline="middle" fill="white" font-size="7" text-anchor="middle" x="222.5" y="402.5" /><rect fill="black" height="25" width="25" x="240" y="390" /><text alignment-baseline="middle" fill="white" font-size="7" text-anchor="middle" x="252.5" y="402.5" /><rect fill="black" height="25" width="25" x="270" y="390" /><text alignment-baseline="middle" fill="white" font-size="7" text-anchor="middle" x="282.5" y="402.5" /><rect fill="black" height="25" width="25" x="300" y="390" /><text alignment-baseline="middle" fill="white" font-size="7" text-anchor="middle" x="312.5" y="402.5" /><rect fill="black" height="25" width="25" x="330" y="390" /><text alignment-baseline="middle" fill="white" font-size="7" text-anchor="middle" x="342.5" y="402.5" /><rect fill="black" height="25" width="25" x="360" y="390" /><text alignment-baseline="middle" fill="white" font-size="7" text-anchor="middle" x="372.5" y="402.5" /><rect fill="black" height="25" width="25" x="390" y="390" /><text alignment-baseline="middle" fill="white" font-size="7" text-anchor="middle" x="402.5" y="402.5" /><rect fill="black" height="25" width="25" x="420" y="390" /><text alignment-baseline="middle" fill="white" font-size="7" text-anchor="middle" x="432.5" y="402.5" /><rect fill="black" height="25" width="25" x="0" y="420" /><text alignment-baseline="middle" fill="white" font-size="7" text-anchor="middle" x="12.5" y="432.5" /><rect fill="black" height="25" width="25" x="30" y="420" /><text alignment-baseline="middle" fill="white" font-size="7" text-anchor="middle" x="42.5" y="432.5" /><rect fill="black" height="25" width="25" x="60" y="420" /><text alignment-baseline="middle" fill="white" font-size="7" text-anchor="middle" x="72.5" y="432.5" /><rect fill="black" height="25" width="25" x="90" y="420" /><text alignment-baseline="middle" fill="white" font-size="7" text-anchor="middle" x="102.5" y="432.5" /><rect fill="black" height="25" width="25" x="120" y="420" /><text alignment-baseline="middle" fill="white" font-size="7" text-anchor="middle" x="132.5" y="432.5" /><rect fill="black" height="25" width="25" x="150" y="420" /><text alignment-baseline="middle" fill="white" font-size="7" text-anchor="middle" x="162.5" y="432.5" /><rect fill="black" height="25" width="25" x="180" y="420" /><text alignment-baseline="middle" fill="white" font-size="7" text-anchor="middle" x="192.5" y="432.5" /><rect fill="black" height="25" width="25" x="210" y="420" /><text alignment-baseline="middle" fill="white" font-size="7" text-anchor="middle" x="222.5" y="432.5" /><rect fill="black" height="25" width="25" x="240" y="420" /><text alignment-baseline="middle" fill="white" font-size="7" text-anchor="middle" x="252.5" y="432.5" /><rect fill="black" height="25" width="25" x="270" y="420" /><text alignment-baseline="middle" fill="white" font-size="7" text-anchor="middle" x="282.5" y="432.5" /><rect fill="black" height="25" width="25" x="300" y="420" /><text alignment-baseline="middle" fill="white" font-size="7" text-anchor="middle" x="312.5" y="432.5" /><rect fill="black" height="25" width="25" x="330" y="420" /><text alignment-baseline="middle" fill="white" font-size="7" text-anchor="middle" x="342.5" y="432.5" /><rect fill="black" height="25" width="25" x="360" y="420" /><text alignment-baseline="middle" fill="white" font-size="7" text-anchor="middle" x="372.5" y="432.5" /><rect fill="black" height="25" width="25" x="390" y="420" /><text alignment-baseline="middle" fill="white" font-size="7" text-anchor="middle" x="402.5" y="432.5" /><rect fill="black" height="25" width="25" x="420" y="420" /><text alignment-baseline="middle" fill="white" font-size="7" text-anchor="middle" x="432.5" y="432.5" /></svg>