<?xml version="1.0" encoding="utf-8" ?>
<svg baseProfile="full" height="100%" version="1.1" width="100%" xmlns="http://www.w3.org/2000/svg" xmlns:ev="http://www.w3.org/2001/xml-events" xmlns:xlink="http://www.w3.org/1999/xlink"><defs /><rect fill="#1C2833" height="50.0" width="50.0" x="0.0" y="0.0" /><text alignment-baseline="middle" fill="#F4F6F7" font-size="15.0" text-anchor="middle" x="25.0" y="25.0" /><rect fill="#1C2833" height="50.0" width="50.0" x="55.0" y="0.0" /><text alignment-baseline="middle" fill="#F4F6F7" font-size="15.0" text-anchor="middle" x="80.0" y="25.0" /><rect fill="#1C2833" height="50.0" width="50.0" x="110.0" y="0.0" /><text alignment-baseline="middle" fill="#F4F6F7" font-size="15.0" text-anchor="middle" x="135.0" y="25.0" /><rect fill="#1C2833" height="50.0" width="50.0" x="165.0" y="0.0" /><text alignment-baseline="middle" fill="#F4F6F7" font-size="15.0" text-anchor="middle" x="190.0" y="25.0" /><rect fill="#1C2833" height="50.0" width="50.0" x="220.0" y="0.0" /><text alignment-baseline="middle" fill="#F4F6F7" font-size="15.0" text-anchor="middle" x="245.0" y="25.0" /><rect fill="#1C2833" height="50.0" width="50.0" x="275.0" y="0.0" /><text alignment-baseline="middle" fill="#F4F6F7" font-size="15.0" text-anchor="middle" x="300.0" y="25.0" /><rect fill="#1C2833" height="50.0" width="50.0" x="330.0" y="0.0" /><text alignment-baseline="middle" fill="#F4F6F7" font-size="15.0" text-anchor="middle" x="355.0" y="25.0" /><rect fill="#1C2833" height="50.0" width="50.0" x="385.0" y="0.0" /><text alignment-baseline="middle" fill="#F4F6F7" font-size="15.0" text-anchor="middle" x="410.0" y="25.0" /><rect fill="#1C2833" height="50.0" width="50.0" x="440.0" y="0.0" /><text alignment-baseline="middle" fill="#F4F6F7" font-size="15.0" text-anchor="middle" x="465.0" y="25.0" /><rect fill="#1C2833" height="50.0" width="50.0" x="495.0" y="0.0" /><text alignment-baseline="middle" fill="#F4F6F7" font-size="15.0" text-anchor="middle" x="520.0" y="25.0" /><rect fill="#1C2833" height="50.0" width="50.0" x="550.0" y="0.0" /><text alignment-baseline="middle" fill="#F4F6F7" font-size="15.0" text-anchor="middle" x="575.0" y="25.0" /><rect fill="#1C2833" height="50.0" width="50.0" x="605.0" y="0.0" /><text alignment-baseline="middle" fill="#F4F6F7" font-size="15.0" text-anchor="middle" x="630.0" y="25.0" /><rect fill="#1C2833" height="50.0" width="50.0" x="660.0" y="0.0" /><text alignment-baseline="middle" fill="#F4F6F7" font-size="15.0" text-anchor="middle" x="685.0" y="25.0" /><rect fill="#1C2833" height="50.0" width="50.0" x="715.0" y="0.0" /><text alignment-baseline="middle" fill="#F4F6F7" font-size="15.0" text-anchor="middle" x="740.0" y="25.0" /><rect fill="#1C2833" height="50.0" width="50.0" x="770.0" y="0.0" /><text alignment-baseline="middle" fill="#F4F6F7" font-size="15.0" text-anchor="middle" x="795.0" y="25.0" /><rect fill="#1C2833" height="50.0" width="50.0" x="0.0" y="55.0" /><text alignment-baseline="middle" fill="#F4F6F7" font-size="15.0" text-anchor="middle" x="25.0" y="80.0" /><rect fill="#1C2833" height="50.0" width="50.0" x="55.0" y="55.0" /><text alignment-baseline="middle" fill="#F4F6F7" font-size="15.0" text-anchor="middle" x="80.0" y="80.0" /><rect fill="#1C2833" height="50.0" width="50.0" x="110.0" y="55.0" /><text alignment-baseline="middle" fill="#F4F6F7" font-size="15.0" text-anchor="middle" x="135.0" y="80.0" /><rect fill="#1C2833" height="50.0" width="50.0" x="165.0" y="55.0" /><text alignment-baseline="middle" fill="#F4F6F7" font-size="15.0" text-anchor="middle" x="190.0" y="80.0" /><rect fill="#1C2833" height="50.0" width="50.0" x="220.0" y="55.0" /><text alignment-baseline="middle" fill="#F4F6F7" font-size="15.0" text-anchor="middle" x="245.0" y="80.0" /><rect fill="#1C2833" height="50.0" width="50.0" x="275.0" y="55.0" /><text alignment-baseline="middle" fill="#F4F6F7" font-size="15.0" text-anchor="middle" x="300.0" y="80.0" /><rect fill="#1C2833" height="50.0" width="50.0" x="330.0" y="55.0" /><text alignment-baseline="middle" fill="#F4F6F7" font-size="15.0" text-anchor="middle" x="355.0" y="80.0" /><rect fill="#1C2833" height="50.0" width="50.0" x="385.0" y="55.0" /><text alignment-baseline="middle" fill="#F4F6F7" font-size="15.0" text-anchor="middle" x="410.0" y="80.0" /><rect fill="#1C2833" height="50.0" width="50.0" x="440.0" y="55.0" /><text alignment-baseline="middle" fill="#F4F6F7" font-size="15.0" text-anchor="middle" x="465.0" y="80.0" /><rect fill="#1C2833" height="50.0" width="50.0" x="495.0" y="55.0" /><text alignment-baseline="middle" fill="#F4F6F7" font-size="15.0" text-anchor="middle" x="520.0" y="80.0" /><rect fill="#1C2833" height="50.0" width="50.0" x="550.0" y="55.0" /><text alignment-baseline="middle" fill="#F4F6F7" font-size="15.0" text-anchor="middle" x="575.0" y="80.0" /><rect fill="#1C2833" height="50.0" width="50.0" x="605.0" y="55.0" /><text alignment-baseline="middle" fill="#F4F6F7" font-size="15.0" text-anchor="middle" x="630.0" y="80.0" /><rect fill="#1C2833" height="50.0" width="50.0" x="660.0" y="55.0" /><text alignment-baseline="middle" fill="#F4F6F7" font-size="15.0" text-anchor="middle" x="685.0" y="80.0" /><rect fill="#1C2833" height="50.0" width="50.0" x="715.0" y="55.0" /><text alignment-baseline="middle" fill="#F4F6F7" font-size="15.0" text-anchor="middle" x="740.0" y="80.0" /><rect fill="#1C2833" height="50.0" width="50.0" x="770.0" y="55.0" /><text alignment-baseline="middle" fill="#F4F6F7" font-size="15.0" text-anchor="middle" x="795.0" y="80.0" /><rect fill="#1C2833" height="50.0" width="50.0" x="0.0" y="110.0" /><text alignment-baseline="middle" fill="#F4F6F7" font-size="15.0" text-anchor="middle" x="25.0" y="135.0" /><rect fill="#1C2833" height="50.0" width="50.0" x="55.0" y="110.0" /><text alignment-baseline="middle" fill="#F4F6F7" font-size="15.0" text-anchor="middle" x="80.0" y="135.0" /><rect fill="#1C2833" height="50.0" width="50.0" x="110.0" y="110.0" /><text alignment-baseline="middle" fill="#F4F6F7" font-size="15.0" text-anchor="middle" x="135.0" y="135.0" /><rect fill="#1C2833" height="50.0" width="50.0" x="165.0" y="110.0" /><text alignment-baseline="middle" fill="#F4F6F7" font-size="15.0" text-anchor="middle" x="190.0" y="135.0" /><rect fill="#138D75" height="50.0" width="50.0" x="220.0" y="110.0" /><text alignment-baseline="middle" fill="#F4F6F7" font-size="15.0" text-anchor="middle" x="245.0" y="135.0">1</text><rect fill="#138D75" height="50.0" width="50.0" x="275.0" y="110.0" /><text alignment-baseline="middle" fill="#F4F6F7" font-size="15.0" text-anchor="middle" x="300.0" y="135.0">1</text><rect fill="#138D75" height="50.0" width="50.0" x="330.0" y="110.0" /><text alignment-baseline="middle" fill="#F4F6F7" font-size="15.0" text-anchor="middle" x="355.0" y="135.0">1</text><rect fill="#138D75" height="50.0" width="50.0" x="385.0" y="110.0" /><text alignment-baseline="middle" fill="#F4F6F7" font-size="15.0" text-anchor="middle" x="410.0" y="135.0">1</text><rect fill="#138D75" height="50.0" width="50.0" x="440.0" y="110.0" /><text alignment-baseline="middle" fill="#F4F6F7" font-size="15.0" text-anchor="middle" x="465.0" y="135.0">1</text><rect fill="#138D75" height="50.0" width="50.0" x="495.0" y="110.0" /><text alignment-baseline="middle" fill="#F4F6F7" font-size="15.0" text-anchor="middle" x="520.0" y="135.0">1</text><rect fill="#138D75" height="50.0" width="50.0" x="550.0" y="110.0" /><text alignment-baseline="middle" fill="#F4F6F7" font-size="15.0" text-anchor="middle" x="575.0" y="135.0">1</text><rect fill="#1C2833" height="50.0" width="50.0" x="605.0" y="110.0" /><text alignment-baseline="middle" fill="#F4F6F7" font-size="15.0" text-anchor="middle" x="630.0" y="135.0" /><rect fill="#1C2833" height="50.0" width="50.0" x="660.0" y="110.0" /><text alignment-baseline="middle" fill="#F4F6F7" font-size="15.0" text-anchor="middle" x="685.0" y="135.0" /><rect fill="#1C2833" height="50.0" width="50.0" x="715.0" y="110.0" /><text alignment-baseline="middle" fill="#F4F6F7" font-size="15.0" text-anchor="middle" x="740.0" y="135.0" /><rect fill="#1C2833" height="50.0" width="50.0" x="770.0" y="110.0" /><text alignment-baseline="middle" fill="#F4F6F7" font-size="15.0" text-anchor="middle" x="795.0" y="135.0" /><rect fill="#1C2833" height="50.0" width="50.0" x="0.0" y="165.0" /><text alignment-baseline="middle" fill="#F4F6F7" font-size="15.0" text-anchor="middle" x="25.0" y="190.0" /><rect fill="#1C2833" height="50.0" width="50.0" x="55.0" y="165.0" /><text alignment-baseline="middle" fill="#F4F6F7" font-size="15.0" text-anchor="middle" x="80.0" y="190.0" /><rect fill="#1C2833" height="50.0" width="50.0" x="110.0" y="165.0" /><text alignment-baseline="middle" fill="#F4F6F7" font-size="15.0" text-anchor="middle" x="135.0" y="190.0" /><rect fill="#138D75" height="50.0" width="50.0" x="165.0" y="165.0" /><text alignment-baseline="middle" fill="#F4F6F7" font-size="15.0" text-anchor="middle" x="190.0" y="190.0">1</text><rect fill="#138D75" height="50.0" width="50.0" x="220.0" y="165.0" /><text alignment-baseline="middle" fill="#F4F6F7" font-size="15.0" text-anchor="middle" x="245.0" y="190.0">1</text><rect fill="#138D75" height="50.0" width="50.0" x="275.0" y="165.0" /><text alignment-baseline="middle" fill="#F4F6F7" font-size="15.0" text-anchor="middle" x="300.0" y="190.0">2</text><rect fill="#138D75" height="50.0" width="50.0" x="330.0" y="165.0" /><text alignment-baseline="middle" fill="#F4F6F7" font-size="15.0" text-anchor="middle" x="355.0" y="190.0">2</text><rect fill="#138D75" height="50.0" width="50.0" x="385.0" y="165.0" /><text alignment-baseline="middle" fill="#F4F6F7" font-size="15.0" text-anchor="middle" x="410.0" y="190.0">1</text><rect fill="#138D75" height="50.0" width="50.0" x="440.0" y="165.0" /><text alignment-baseline="middle" fill="#F4F6F7" font-size="15.0" text-anchor="middle" x="465.0" y="190.0">1</text><rect fill="#138D75" height="50.0" width="50.0" x="495.0" y="165.0" /><text alignment-baseline="middle" fill="#F4F6F7" font-size="15.0" text-anchor="middle" x="520.0" y="190.0">2</text><rect fill="#138D75" height="50.0" width="50.0" x="550.0" y="165.0" /><text alignment-baseline="middle" fill="#F4F6F7" font-size="15.0" text-anchor="middle" x="575.0" y="190.0">1</text><rect fill="#138D75" height="50.0" width="50.0" x="605.0" y="165.0" /><text alignment-baseline="middle" fill="#F4F6F7" font-size="15.0" text-anchor="middle" x="630.0" y="190.0">1</text><rect fill="#1C2833" height="50.0" width="50.0" x="660.0" y="165.0" /><text alignment-baseline="middle" fill="#F4F6F7" font-size="15.0" text-anchor="middle" x="685.0" y="190.0" /><rect fill="#1C2833" height="50.0" width="50.0" x="715.0" y="165.0" /><text alignment-baseline="middle" fill="#F4F6F7" font-size="15.0" text-anchor="middle" x="740.0" y="190.0" /><rect fill="#1C2833" height="50.0" width="50.0" x="770.0" y="165.0" /><text alignment-baseline="middle" fill="#F4F6F7" font-size="15.0" text-anchor="middle" x="795.0" y="190.0" /><rect fill="#1C2833" height="50.0" width="50.0" x="0.0" y="220.0" /><text alignment-baseline="middle" fill="#F4F6F7" font-size="15.0" text-anchor="middle" x="25.0" y="245.0" /><rect fill="#1C2833" height="50.0" width="50.0" x="55.0" y="220.0" /><text alignment-baseline="middle" fill="#F4F6F7" font-size="15.0" text-anchor="middle" x="80.0" y="245.0" /><rect fill="#138D75" height="50.0" width="50.0" x="110.0" y="220.0" /><text alignment-baseline="middle" fill="#F4F6F7" font-size="15.0" text-anchor="middle" x="135.0" y="245.0">1</text><rect fill="#138D75" height="50.0" width="50.0" x="165.0" y="220.0" /><text alignment-baseline="middle" fill="#F4F6F7" font-size="15.0" text-anchor="middle" x="190.0" y="245.0">1</text><rect fill="#138D75" height="50.0" width="50.0" x="220.0" y="220.0" /><text alignment-baseline="middle" fill="#F4F6F7" font-size="15.0" text-anchor="middle" x="245.0" y="245.0">2</text><rect fill="#138D75" height="50.0" width="50.0" x="275.0" y="220.0" /><text alignment-baseline="middle" fill="#F4F6F7" font-size="15.0" text-anchor="middle" x="300.0" y="245.0">1</text><rect fill="#138D75" height="50.0" width="50.0" x="330.0" y="220.0" /><text alignment-baseline="middle" fill="#F4F6F7" font-size="15.0" text-anchor="middle" x="355.0" y="245.0">3</text><rect fill="#138D75" height="50.0" width="50.0" x="385.0" y="220.0" /><text alignment-baseline="middle" fill="#F4F6F7" font-size="15.0" text-anchor="middle" x="410.0" y="245.0">1</text><rect fill="#138D75" height="50.0" width="50.0" x="440.0" y="220.0" /><text alignment-baseline="middle" fill="#F4F6F7" font-size="15.0" text-anchor="middle" x="465.0" y="245.0">3</text><rect fill="#138D75" height="50.0" width="50.0" x="495.0" y="220.0" /><text alignment-baseline="middle" fill="#F4F6F7" font-size="15.0" text-anchor="middle" x="520.0" y="245.0">2</text><rect fill="#138D75" height="50.0" width="50.0" x="550.0" y="220.0" /><text alignment-baseline="middle" fill="#F4F6F7" font-size="15.0" text-anchor="middle" x="575.0" y="245.0">2</text><rect fill="#138D75" height="50.0" width="50.0" x="605.0" y="220.0" /><text alignment-baseline="middle" fill="#F4F6F7" font-size="15.0" text-anchor="middle" x="630.0" y="245.0">1</text><rect fill="#138D75" height="50.0" width="50.0" x="660.0" y="220.0" /><text alignment-baseline="middle" fill="#F4F6F7" font-size="15.0" text-anchor="middle" x="685.0" y="245.0">1</text><rect fill="#1C2833" height="50.0" width="50.0" x="715.0" y="220.0" /><text alignment-baseline="middle" fill="#F4F6F7" font-size="15.0" text-anchor="middle" x="740.0" y="245.0" /><rect fill="#1C2833" height="50.0" width="50.0" x="770.0" y="220.0" /><text alignment-baseline="middle" fill="#F4F6F7" font-size="15.0" text-anchor="middle" x="795.0" y="245.0" /><rect fill="#1C2833" height="50.0" width="50.0" x="0.0" y="275.0" /><text alignment-baseline="middle" fill="#F4F6F7" font-size="15.0" text-anchor="middle" x="25.0" y="300.0" /><rect fill="#1C2833" height="50.0" width="50.0" x="55.0" y="275.0" /><text alignment-baseline="middle" fill="#F4F6F7" font-size="15.0" text-anchor="middle" x="80.0" y="300.0" /><rect fill="#138D75" height="50.0" width="50.0" x="110.0" y="275.0" /><text alignment-baseline="middle" fill="#F4F6F7" font-size="15.0" text-anchor="middle" x="135.0" y="300.0">1</text><rect fill="#138D75" height="50.0" width="50.0" x="165.0" y="275.0" /><text alignment-baseline="middle" fill="#F4F6F7" font-size="15.0" text-anchor="middle" x="190.0" y="300.0">2</text><rect fill="#138D75" height="50.0" width="50.0" x="220.0" y="275.0" /><text alignment-baseline="middle" fill="#F4F6F7" font-size="15.0" text-anchor="middle" x="245.0" y="300.0">1</text><rect fill="#138D75" height="50.0" width="50.0" x="275.0" y="275.0" /><text alignment-baseline="middle" fill="#F4F6F7" font-size="15.0" text-anchor="middle" x="300.0" y="300.0">1</text><rect fill="#138D75" height="50.0" width="50.0" x="330.0" y="275.0" /><text alignment-baseline="middle" fill="#F4F6F7" font-size="15.0" text-anchor="middle" x="355.0" y="300.0">1</text><rect fill="#138D75" height="50.0" width="50.0" x="385.0" y="275.0" /><text alignment-baseline="middle" fill="#F4F6F7" font-size="15.0" text-anchor="middle" x="410.0" y="300.0">2</text><rect fill="#138D75" height="50.0" width="50.0" x="440.0" y="275.0" /><text alignment-baseline="middle" fill="#F4F6F7" font-size="15.0" text-anchor="middle" x="465.0" y="300.0">3</text><rect fill="#138D75" height="50.0" width="50.0" x="495.0" y="275.0" /><text alignment-baseline="middle" fill="#F4F6F7" font-size="15.0" text-anchor="middle" x="520.0" y="300.0">2</text><rect fill="#138D75" height="50.0" width="50.0" x="550.0" y="275.0" /><text alignment-baseline="middle" fill="#F4F6F7" font-size="15.0" text-anchor="middle" x="575.0" y="300.0">2</text><rect fill="#138D75" height="50.0" width="50.0" x="605.0" y="275.0" /><text alignment-baseline="middle" fill="#F4F6F7" font-size="15.0" text-anchor="middle" x="630.0" y="300.0">1</text><rect fill="#138D75" height="50.0" width="50.0" x="660.0" y="275.0" /><text alignment-baseline="middle" fill="#F4F6F7" font-size="15.0" text-anchor="middle" x="685.0" y="300.0">1</text><rect fill="#1C2833" height="50.0" width="50.0" x="715.0" y="275.0" /><text alignment-baseline="middle" fill="#F4F6F7" font-size="15.0" text-anchor="middle" x="740.0" y="300.0" /><rect fill="#1C2833" height="50.0" width="50.0" x="770.0" y="275.0" /><text alignment-baseline="middle" fill="#F4F6F7" font-size="15.0" text-anchor="middle" x="795.0" y="300.0" /><rect fill="#1C2833" height="50.0" width="50.0" x="0.0" y="330.0" /><text alignment-baseline="middle" fill="#F4F6F7" font-size="15.0" text-anchor="middle" x="25.0" y="355.0" /><rect fill="#1C2833" height="50.0" width="50.0" x="55.0" y="330.0" /><text alignment-baseline="middle" fill="#F4F6F7" font-size="15.0" text-anchor="middle" x="80.0" y="355.0" /><rect fill="#138D75" height="50.0" width="50.0" x="110.0" y="330.0" /><text alignment-baseline="middle" fill="#F4F6F7" font-size="15.0" text-anchor="middle" x="135.0" y="355.0">1</text><rect fill="#138D75" height="50.0" width="50.0" x="165.0" y="330.0" /><text alignment-baseline="middle" fill="#F4F6F7" font-size="15.0" text-anchor="middle" x="190.0" y="355.0">1</text><rect fill="#138D75" height="50.0" width="50.0" x="220.0" y="330.0" /><text alignment-baseline="middle" fill="#F4F6F7" font-size="15.0" text-anchor="middle" x="245.0" y="355.0">2</text><rect fill="#138D75" height="50.0" width="50.0" x="275.0" y="330.0" /><text alignment-baseline="middle" fill="#F4F6F7" font-size="15.0" text-anchor="middle" x="300.0" y="355.0">3</text><rect fill="#138D75" height="50.0" width="50.0" x="330.0" y="330.0" /><text alignment-baseline="middle" fill="#F4F6F7" font-size="15.0" text-anchor="middle" x="355.0" y="355.0">2</text><rect fill="#138D75" height="50.0" width="50.0" x="385.0" y="330.0" /><text alignment-baseline="middle" fill="#F4F6F7" font-size="15.0" text-anchor="middle" x="410.0" y="355.0">1</text><rect fill="#138D75" height="50.0" width="50.0" x="440.0" y="330.0" /><text alignment-baseline="middle" fill="#F4F6F7" font-size="15.0" text-anchor="middle" x="465.0" y="355.0">4</text><rect fill="#138D75" height="50.0" width="50.0" x="495.0" y="330.0" /><text alignment-baseline="middle" fill="#F4F6F7" font-size="15.0" text-anchor="middle" x="520.0" y="355.0">2</text><rect fill="#138D75" height="50.0" width="50.0" x="550.0" y="330.0" /><text alignment-baseline="middle" fill="#F4F6F7" font-size="15.0" text-anchor="middle" x="575.0" y="355.0">2</text><rect fill="#138D75" height="50.0" width="50.0" x="605.0" y="330.0" /><text alignment-baseline="middle" fill="#F4F6F7" font-size="15.0" text-anchor="middle" x="630.0" y="355.0">1</text><rect fill="#138D75" height="50.0" width="50.0" x="660.0" y="330.0" /><text alignment-baseline="middle" fill="#F4F6F7" font-size="15.0" text-anchor="middle" x="685.0" y="355.0">1</text><rect fill="#1C2833" height="50.0" width="50.0" x="715.0" y="330.0" /><text alignment-baseline="middle" fill="#F4F6F7" font-size="15.0" text-anchor="middle" x="740.0" y="355.0" /><rect fill="#1C2833" height="50.0" width="50.0" x="770.0" y="330.0" /><text alignment-baseline="middle" fill="#F4F6F7" font-size="15.0" text-anchor="middle" x="795.0" y="355.0" /><rect fill="#1C2833" height="50.0" width="50.0" x="0.0" y="385.0" /><text alignment-baseline="middle" fill="#F4F6F7" font-size="15.0" text-anchor="middle" x="25.0" y="410.0" /><rect fill="#1C2833" height="50.0" width="50.0" x="55.0" y="385.0" /><text alignment-baseline="middle" fill="#F4F6F7" font-size="15.0" text-anchor="middle" x="80.0" y="410.0" /><rect fill="#138D75" height="50.0" width="50.0" x="110.0" y="385.0" /><text alignment-baseline="middle" fill="#F4F6F7" font-size="15.0" text-anchor="middle" x="135.0" y="410.0">1</text><rect fill="#138D75" height="50.0" width="50.0" x="165.0" y="385.0" /><text alignment-baseline="middle" fill="#F4F6F7" font-size="15.0" text-anchor="middle" x="190.0" y="410.0">1</text><rect fill="#138D75" height="50.0" width="50.0" x="220.0" y="385.0" /><text alignment-baseline="middle" fill="#F4F6F7" font-size="15.0" text-anchor="middle" x="245.0" y="410.0">2</text><rect fill="#138D75" height="50.0" width="50.0" x="275.0" y="385.0" /><text alignment-baseline="middle" fill="#F4F6F7" font-size="15.0" text-anchor="middle" x="300.0" y="410.0">1</text><rect fill="#138D75" height="50.0" width="50.0" x="330.0" y="385.0" /><text alignment-baseline="middle" fill="#F4F6F7" font-size="15.0" text-anchor="middle" x="355.0" y="410.0">4</text><rect fill="#138D75" height="50.0" width="50.0" x="385.0" y="385.0" /><text alignment-baseline="middle" fill="#F4F6F7" font-size="15.0" text-anchor="middle" x="410.0" y="410.0">3</text><rect fill="#138D75" height="50.0" width="50.0" x="440.0" y="385.0" /><text alignment-baseline="middle" fill="#F4F6F7" font-size="15.0" text-anchor="middle" x="465.0" y="410.0">2</text><rect fill="#138D75" height="50.0" width="50.0" x="495.0" y="385.0" /><text alignment-baseline="middle" fill="#F4F6F7" font-size="15.0" text-anchor="middle" x="520.0" y="410.0">4</text><rect fill="#138D75" height="50.0" width="50.0" x="550.0" y="385.0" /><text alignment-baseline="middle" fill="#F4F6F7" font-size="15.0" text-anchor="middle" x="575.0" y="410.0">2</text><rect fill="#138D75" height="50.0" width="50.0" x="605.0" y="385.0" /><text alignment-baseline="middle" fill="#F4F6F7" font-size="15.0" text-anchor="middle" x="630.0" y="410.0">1</text><rect fill="#138D75" height="50.0" width="50.0" x="660.0" y="385.0" /><text alignment-baseline="middle" fill="#F4F6F7" font-size="15.0" text-anchor="middle" x="685.0" y="410.0">1</text><rect fill="#1C2833" height="50.0" width="50.0" x="715.0" y="385.0" /><text alignment-baseline="middle" fill="#F4F6F7" font-size="15.0" text-anchor="middle" x="740.0" y="410.0" /><rect fill="#1C2833" height="50.0" width="50.0" x="770.0" y="385.0" /><text alignment-baseline="middle" fill="#F4F6F7" font-size="15.0" text-anchor="middle" x="795.0" y="410.0" /><rect fill="#1C2833" height="50.0" width="50.0" x="0.0" y="440.0" /><text alignment-baseline="middle" fill="#F4F6F7" font-size="15.0" text-anchor="middle" x="25.0" y="465.0" /><rect fill="#1C2833" height="50.0" width="50.0" x="55.0" y="440.0" /><text alignment-baseline="middle" fill="#F4F6F7" font-size="15.0" text-anchor="middle" x="80.0" y="465.0" /><rect fill="#138D75" height="50.0" width="50.0" x="110.0" y="440.0" /><text alignment-baseline="middle" fill="#F4F6F7" font-size="15.0" text-anchor="middle" x="135.0" y="465.0">1</text><rect fill="#138D75" height="50.0" width="50.0" x="165.0" y="440.0" /><text alignment-baseline="middle" fill="#F4F6F7" font-size="15.0" text-anchor="middle" x="190.0" y="465.0">2</text><rect fill="#138D75" height="50.0" width="50.0" x="220.0" y="440.0" /><text alignment-baseline="middle" fill="#F4F6F7" font-size="15.0" text-anchor="middle" x="245.0" y="465.0">1</text><rect fill="#138D75" height="50.0" width="50.0" x="275.0" y="440.0" /><text alignment-baseline="middle" fill="#F4F6F7" font-size="15.0" text-anchor="middle" x="300.0" y="465.0">4</text><rect fill="#138D75" height="50.0" width="50.0" x="330.0" y="440.0" /><text alignment-baseline="middle" fill="#F4F6F7" font-size="15.0" text-anchor="middle" x="355.0" y="465.0">4</text><rect fill="#138D75" height="50.0" width="50.0" x="385.0" y="440.0" /><text alignment-baseline="middle" fill="#F4F6F7" font-size="15.0" text-anchor="middle" x="410.0" y="465.0">3</text><rect fill="#138D75" height="50.0" width="50.0" x="440.0" y="440.0" /><text alignment-baseline="middle" fill="#F4F6F7" font-size="15.0" text-anchor="middle" x="465.0" y="465.0">1</text><rect fill="#138D75" height="50.0" width="50.0" x="495.0" y="440.0" /><text alignment-baseline="middle" fill="#F4F6F7" font-size="15.0" text-anchor="middle" x="520.0" y="465.0">3</text><rect fill="#138D75" height="50.0" width="50.0" x="550.0" y="440.0" /><text alignment-baseline="middle" fill="#F4F6F7" font-size="15.0" text-anchor="middle" x="575.0" y="465.0">3</text><rect fill="#138D75" height="50.0" width="50.0" x="605.0" y="440.0" /><text alignment-baseline="middle" fill="#F4F6F7" font-size="15.0" text-anchor="middle" x="630.0" y="465.0">2</text><rect fill="#138D75" height="50.0" width="50.0" x="660.0" y="440.0" /><text alignment-baseline="middle" fill="#F4F6F7" font-size="15.0" text-anchor="middle" x="685.0" y="465.0">1</text><rect fill="#1C2833" height="50.0" width="50.0" x="715.0" y="440.0" /><text alignment-baseline="middle" fill="#F4F6F7" font-size="15.0" text-anchor="middle" x="740.0" y="465.0" /><rect fill="#1C2833" height="50.0" width="50.0" x="770.0" y="440.0" /><text alignment-baseline="middle" fill="#F4F6F7" font-size="15.0" text-anchor="middle" x="795.0" y="465.0" /><rect fill="#1C2833" height="50.0" width="50.0" x="0.0" y="495.0" /><text alignment-baseline="middle" fill="#F4F6F7" font-size="15.0" text-anchor="middle" x="25.0" y="520.0" /><rect fill="#1C2833" height="50.0" width="50.0" x="55.0" y="495.0" /><text alignment-baseline="middle" fill="#F4F6F7" font-size="15.0" text-anchor="middle" x="80.0" y="520.0" /><rect fill="#138D75" height="50.0" width="50.0" x="110.0" y="495.0" /><text alignment-baseline="middle" fill="#F4F6F7" font-size="15.0" text-anchor="middle" x="135.0" y="520.0">1</text><rect fill="#138D75" height="50.0" width="50.0" x="165.0" y="495.0" /><text alignment-baseline="middle" fill="#F4F6F7" font-size="15.0" text-anchor="middle" x="190.0" y="520.0">1</text><rect fill="#138D75" height="50.0" width="50.0" x="220.0" y="495.0" /><text alignment-baseline="middle" fill="#F4F6F7" font-size="15.0" text-anchor="middle" x="245.0" y="520.0">1</text><rect fill="#138D75" height="50.0" width="50.0" x="275.0" y="495.0" /><text alignment-baseline="middle" fill="#F4F6F7" font-size="15.0" text-anchor="middle" x="300.0" y="520.0">2</text><rect fill="#138D75" height="50.0" width="50.0" x="330.0" y="495.0" /><text alignment-baseline="middle" fill="#F4F6F7" font-size="15.0" text-anchor="middle" x="355.0" y="520.0">2</text><rect fill="#138D75" height="50.0" width="50.0" x="385.0" y="495.0" /><text alignment-baseline="middle" fill="#F4F6F7" font-size="15.0" text-anchor="middle" x="410.0" y="520.0">4</text><rect fill="#138D75" height="50.0" width="50.0" x="440.0" y="495.0" /><text alignment-baseline="middle" fill="#F4F6F7" font-size="15.0" text-anchor="middle" x="465.0" y="520.0">3</text><rect fill="#138D75" height="50.0" width="50.0" x="495.0" y="495.0" /><text alignment-baseline="middle" fill="#F4F6F7" font-size="15.0" text-anchor="middle" x="520.0" y="520.0">1</text><rect fill="#138D75" height="50.0" width="50.0" x="550.0" y="495.0" /><text alignment-baseline="middle" fill="#F4F6F7" font-size="15.0" text-anchor="middle" x="575.0" y="520.0">1</text><rect fill="#138D75" height="50.0" width="50.0" x="605.0" y="495.0" /><text alignment-baseline="middle" fill="#F4F6F7" font-size="15.0" text-anchor="middle" x="630.0" y="520.0">1</text><rect fill="#138D75" height="50.0" width="50.0" x="660.0" y="495.0" /><text alignment-baseline="middle" fill="#F4F6F7" font-size="15.0" text-anchor="middle" x="685.0" y="520.0">1</text><rect fill="#1C2833" height="50.0" width="50.0" x="715.0" y="495.0" /><text alignment-baseline="middle" fill="#F4F6F7" font-size="15.0" text-anchor="middle" x="740.0" y="520.0" /><rect fill="#1C2833" height="50.0" width="50.0" x="770.0" y="495.0" /><text alignment-baseline="middle" fill="#F4F6F7" font-size="15.0" text-anchor="middle" x="795.0" y="520.0" /><rect fill="#1C2833" height="50.0" width="50.0" x="0.0" y="550.0" /><text alignment-baseline="middle" fill="#F4F6F7" font-size="15.0" text-anchor="middle" x="25.0" y="575.0" /><rect fill="#1C2833" height="50.0" width="50.0" x="55.0" y="550.0" /><text alignment-baseline="middle" fill="#F4F6F7" font-size="15.0" text-anchor="middle" x="80.0" y="575.0" /><rect fill="#138D75" height="50.0" width="50.0" x="110.0" y="550.0" /><text alignment-baseline="middle" fill="#F4F6F7" font-size="15.0" text-anchor="middle" x="135.0" y="575.0">1</text><rect fill="#138D75" height="50.0" width="50.0" x="165.0" y="550.0" /><text alignment-baseline="middle" fill="#F4F6F7" font-size="15.0" text-anchor="middle" x="190.0" y="575.0">1</text><rect fill="#138D75" height="50.0" width="50.0" x="220.0" y="550.0" /><text alignment-baseline="middle" fill="#F4F6F7" font-size="15.0" text-anchor="middle" x="245.0" y="575.0">2</text><rect fill="#138D75" height="50.0" width="50.0" x="275.0" y="550.0" /><text alignment-baseline="middle" fill="#F4F6F7" font-size="15.0" text-anchor="middle" x="300.0" y="575.0">1</text><rect fill="#138D75" height="50.0" width="50.0" x="330.0" y="550.0" /><text alignment-baseline="middle" fill="#F4F6F7" font-size="15.0" text-anchor="middle" x="355.0" y="575.0">1</text><rect fill="#138D75" height="50.0" width="50.0" x="385.0" y="550.0" /><text alignment-baseline="middle" fill="#F4F6F7" font-size="15.0" text-anchor="middle" x="410.0" y="575.0">2</text><rect fill="#138D75" height="50.0" width="50.0" x="440.0" y="550.0" /><text alignment-baseline="middle" fill="#F4F6F7" font-size="15.0" text-anchor="middle" x="465.0" y="575.0">3</text><rect fill="#138D75" height="50.0" width="50.0" x="495.0" y="550.0" /><text alignment-baseline="middle" fill="#F4F6F7" font-size="15.0" text-anchor="middle" x="520.0" y="575.0">1</text><rect fill="#138D75" height="50.0" width="50.0" x="550.0" y="550.0" /><text alignment-baseline="middle" fill="#F4F6F7" font-size="15.0" text-anchor="middle" x="575.0" y="575.0">2</text><rect fill="#138D75" height="50.0" width="50.0" x="605.0" y="550.0" /><text alignment-baseline="middle" fill="#F4F6F7" font-size="15.0" text-anchor="middle" x="630.0" y="575.0">1</text><rect fill="#138D75" height="50.0" width="50.0" x="660.0" y="550.0" /><text alignment-baseline="middle" fill="#F4F6F7" font-size="15.0" text-anchor="middle" x="685.0" y="575.0">1</text><rect fill="#1C2833" height="50.0" width="50.0" x="715.0" y="550.0" /><text alignment-baseline="middle" fill="#F4F6F7" font-size="15.0" text-anchor="middle" x="740.0" y="575.0" /><rect fill="#1C2833" height="50.0" width="50.0" x="770.0" y="550.0" /><text alignment-baseline="middle" fill="#F4F6F7" font-size="15.0" text-anchor="middle" x="795.0" y="575.0" /><rect fill="#1C2833" height="50.0" width="50.0" x="0.0" y="605.0" /><text alignment-baseline="middle" fill="#F4F6F7" font-size="15.0" text-anchor="middle" x="25.0" y="630.0" /><rect fill="#1C2833" height="50.0" width="50.0" x="55.0" y="605.0" /><text alignment-baseline="middle" fill="#F4F6F7" font-size="15.0" text-anchor="middle" x="80.0" y="630.0" /><rect fill="#1C2833" height="50.0" width="50.0" x="110.0" y="605.0" /><text alignment-baseline="middle" fill="#F4F6F7" font-size="15.0" text-anchor="middle" x="135.0" y="630.0" /><rect fill="#138D75" height="50.0" width="50.0" x="165.0" y="605.0" /><text alignment-baseline="middle" fill="#F4F6F7" font-size="15.0" text-anchor="middle" x="190.0" y="630.0">1</text><rect fill="#138D75" height="50.0" width="50.0" x="220.0" y="605.0" /><text alignment-baseline="middle" fill="#F4F6F7" font-size="15.0" text-anchor="middle" x="245.0" y="630.0">1</text><rect fill="#138D75" height="50.0" width="50.0" x="275.0" y="605.0" /><text alignment-baseline="middle" fill="#F4F6F7" font-size="15.0" text-anchor="middle" x="300.0" y="630.0">2</text><rect fill="#138D75" height="50.0" width="50.0" x="330.0" y="605.0" /><text alignment-baseline="middle" fill="#F4F6F7" font-size="15.0" text-anchor="middle" x="355.0" y="630.0">2</text><rect fill="#138D75" height="50.0" width="50.0" x="385.0" y="605.0" /><text alignment-baseline="middle" fill="#F4F6F7" font-size="15.0" text-anchor="middle" x="410.0" y="630.0">1</text><rect fill="#138D75" height="50.0" width="50.0" x="440.0" y="605.0" /><text alignment-baseline="middle" fill="#F4F6F7" font-size="15.0" text-anchor="middle" x="465.0" y="630.0">2</text><rect fill="#138D75" height="50.0" width="50.0" x="495.0" y="605.0" /><text alignment-baseline="middle" fill="#F4F6F7" font-size="15.0" text-anchor="middle" x="520.0" y="630.0">1</text><rect fill="#138D75" height="50.0" width="50.0" x="550.0" y="605.0" /><text alignment-baseline="middle" fill="#F4F6F7" font-size="15.0" text-anchor="middle" x="575.0" y="630.0">1</text><rect fill="#138D75" height="50.0" width="50.0" x="605.0" y="605.0" /><text alignment-baseline="middle" fill="#F4F6F7" font-size="15.0" text-anchor="middle" x="630.0" y="630.0">1</text><rect fill="#1C2833" height="50.0" width="50.0" x="660.0" y="605.0" /><text alignment-baseline="middle" fill="#F4F6F7" font-size="15.0" text-anchor="middle" x="685.0" y="630.0" /><rect fill="#1C2833" height="50.0" width="50.0" x="715.0" y="605.0" /><text alignment-baseline="middle" fill="#F4F6F7" font-size="15.0" text-anchor="middle" x="740.0" y="630.0" /><rect fill="#1C2833" height="50.0" width="50.0" x="770.0" y="605.0" /><text alignment-baseline="middle" fill="#F4F6F7" font-size="15.0" text-anchor="middle" x="795.0" y="630.0" /><rect fill="#1C2833" height="50.0" width="50.0" x="0.0" y="660.0" /><text alignment-baseline="middle" fill="#F4F6F7" font-size="15.0" text-anchor="middle" x="25.0" y="685.0" /><rect fill="#1C2833" height="50.0" width="50.0" x="55.0" y="660.0" /><text alignment-baseline="middle" fill="#F4F6F7" font-size="15.0" text-anchor="middle" x="80.0" y="685.0" /><rect fill="#1C2833" height="50.0" width="50.0" x="110.0" y="660.0" /><text alignment-baseline="middle" fill="#F4F6F7" font-size="15.0" text-anchor="middle" x="135.0" y="685.0" /><rect fill="#1C2833" height="50.0" width="50.0" x="165.0" y="660.0" /><text alignment-baseline="middle" fill="#F4F6F7" font-size="15.0" text-anchor="middle" x="190.0" y="685.0" /><rect fill="#138D75" height="50.0" width="50.0" x="220.0" y="660.0" /><text alignment-baseline="middle" fill="#F4F6F7" font-size="15.0" text-anchor="middle" x="245.0" y="685.0">1</text><rect fill="#138D75" height="50.0" width="50.0" x="275.0" y="660.0" /><text alignment-baseline="middle" fill="#F4F6F7" font-size="15.0" text-anchor="middle" x="300.0" y="685.0">1</text><rect fill="#138D75" height="50.0" width="50.0" x="330.0" y="660.0" /><text alignment-baseline="middle" fill="#F4F6F7" font-size="15.0" text-anchor="middle" x="355.0" y="685.0">1</text><rect fill="#138D75" height="50.0" width="50.0" x="385.0" y="660.0" /><text alignment-baseline="middle" fill="#F4F6F7" font-size="15.0" text-anchor="middle" x="410.0" y="685.0">1</text><rect fill="#138D75" height="50.0" width="50.0" x="440.0" y="660.0" /><text alignment-baseline="middle" fill="#F4F6F7" font-size="15.0" text-anchor="middle" x="465.0" y="685.0">1</text><rect fill="#138D75" height="50.0" width="50.0" x="495.0" y="660.0" /><text alignment-baseline="middle" fill="#F4F6F7" font-size="15.0" text-anchor="middle" x="520.0" y="685.0">1</text><rect fill="#138D75" height="50.0" width="50.0" x="550.0" y="660.0" /><text alignment-baseline="middle" fill="#F4F6F7" font-size="15.0" text-anchor="middle" x="575.0" y="685.0">1</text><rect fill="#1C2833" height="50.0" width="50.0" x="605.0" y="660.0" /><text alignment-baseline="middle" fill="#F4F6F7" font-size="15.0" text-anchor="middle" x="630.0" y="685.0" /><rect fill="#1C2833" height="50.0" width="50.0" x="660.0" y="660.0" /><text alignment-baseline="middle" fill="#F4F6F7" font-size="15.0" text-anchor="middle" x="685.0" y="685.0" /><rect fill="#1C2833" height="50.0" width="50.0" x="715.0" y="660.0" /><text alignment-baseline="middle" fill="#F4F6F7" font-size="15.0" text-anchor="middle" x="740.0" y="685.0" /><rect fill="#1C2833" height="50.0" width="50.0" x="770.0" y="660.0" /><text alignment-baseline="middle" fill="#F4F6F7" font-size="15.0" text-anchor="middle" x="795.0" y="685.0" /><rect fill="#1C2833" height="50.0" width="50.0" x="0.0" y="715.0" /><text alignment-baseline="middle" fill="#F4F6F7" font-size="15.0" text-anchor="middle" x="25.0" y="740.0" /><rect fill="#1C2833" height="50.0" width="50.0" x="55.0" y="715.0" /><text alignment-baseline="middle" fill="#F4F6F7" font-size="15.0" text-anchor="middle" x="80.0" y="740.0" /><rect fill="#1C2833" height="50.0" width="50.0" x="110.0" y="715.0" /><text alignment-baseline="middle" fill="#F4F6F7" font-size="15.0" text-anchor="middle" x="135.0" y="740.0" /><rect fill="#1C2833" height="50.0" width="50.0" x="165.0" y="715.0" /><text alignment-baseline="middle" fill="#F4F6F7" font-size="15.0" text-anchor="middle" x="190.0" y="740.0" /><rect fill="#1C2833" height="50.0" width="50.0" x="220.0" y="715.0" /><text alignment-baseline="middle" fill="#F4F6F7" font-size="15.0" text-anchor="middle" x="245.0" y="740.0" /><rect fill="#1C2833" height="50.0" width="50.0" x="275.0" y="715.0" /><text alignment-baseline="middle" fill="#F4F6F7" font-size="15.0" text-anchor="middle" x="300.0" y="740.0" /><rect fill="#1C2833" height="50.0" width="50.0" x="330.0" y="715.0" /><text alignment-baseline="middle" fill="#F4F6F7" font-size="15.0" text-anchor="middle" x="355.0" y="740.0" /><rect fill="#1C2833" height="50.0" width="50.0" x="385.0" y="715.0" /><text alignment-baseline="middle" fill="#F4F6F7" font-size="15.0" text-anchor="middle" x="410.0" y="740.0" /><rect fill="#1C2833" height="50.0" width="50.0" x="440.0" y="715.0" /><text alignment-baseline="middle" fill="#F4F6F7" font-size="15.0" text-anchor="middle" x="465.0" y="740.0" /><rect fill="#1C2833" height="50.0" width="50.0" x="495.0" y="715.0" /><text alignment-baseline="middle" fill="#F4F6F7" font-size="15.0" text-anchor="middle" x="520.0" y="740.0" /><rect fill="#1C2833" height="50.0" width="50.0" x="550.0" y="715.0" /><text alignment-baseline="middle" fill="#F4F6F7" font-size="15.0" text-anchor="middle" x="575.0" y="740.0" /><rect fill="#1C2833" height="50.0" width="50.0" x="605.0" y="715.0" /><text alignment-baseline="middle" fill="#F4F6F7" font-size="15.0" text-anchor="middle" x="630.0" y="740.0" /><rect fill="#1C2833" height="50.0" width="50.0" x="660.0" y="715.0" /><text alignment-baseline="middle" fill="#F4F6F7" font-size="15.0" text-anchor="middle" x="685.0" y="740.0" /><rect fill="#1C2833" height="50.0" width="50.0" x="715.0" y="715.0" /><text alignment-baseline="middle" fill="#F4F6F7" font-size="15.0" text-anchor="middle" x="740.0" y="740.0" /><rect fill="#1C2833" height="50.0" width="50.0" x="770.0" y="715.0" /><text alignment-baseline="middle" fill="#F4F6F7" font-size="15.0" text-anchor="middle" x="795.0" y="740.0" /><rect fill="#1C2833" height="50.0" width="50.0" x="0.0" y="770.0" /><text alignment-baseline="middle" fill="#F4F6F7" font-size="15.0" text-anchor="middle" x="25.0" y="795.0" /><rect fill="#1C2833" height="50.0" width="50.0" x="55.0" y="770.0" /><text alignment-baseline="middle" fill="#F4F6F7" font-size="15.0" text-anchor="middle" x="80.0" y="795.0" /><rect fill="#1C2833" height="50.0" width="50.0" x="110.0" y="770.0" /><text alignment-baseline="middle" fill="#F4F6F7" font-size="15.0" text-anchor="middle" x="135.0" y="795.0" /><rect fill="#1C2833" height="50.0" width="50.0" x="165.0" y="770.0" /><text alignment-baseline="middle" fill="#F4F6F7" font-size="15.0" text-anchor="middle" x="190.0" y="795.0" /><rect fill="#1C2833" height="50.0" width="50.0" x="220.0" y="770.0" /><text alignment-baseline="middle" fill="#F4F6F7" font-size="15.0" text-anchor="middle" x="245.0" y="795.0" /><rect fill="#1C2833" height="50.0" width="50.0" x="275.0" y="770.0" /><text alignment-baseline="middle" fill="#F4F6F7" font-size="15.0" text-anchor="middle" x="300.0" y="795.0" /><rect fill="#1C2833" height="50.0" width="50.0" x="330.0" y="770.0" /><text alignment-baseline="middle" fill="#F4F6F7" font-size="15.0" text-anchor="middle" x="355.0" y="795.0" /><rect fill="#1C2833" height="50.0" width="50.0" x="385.0" y="770.0" /><text alignment-baseline="middle" fill="#F4F6F7" font-size="15.0" text-anchor="middle" x="410.0" y="795.0" /><rect fill="#1C2833" height="50.0" width="50.0" x="440.0" y="770.0" /><text alignment-baseline="middle" fill="#F4F6F7" font-size="15.0" text-anchor="middle" x="465.0" y="795.0" /><rect fill="#1C2833" height="50.0" width="50.0" x="495.0" y="770.0" /><text alignment-baseline="middle" fill="#F4F6F7" font-size="15.0" text-anchor="middle" x="520.0" y="795.0" /><rect fill="#1C2833" height="50.0" width="50.0" x="550.0" y="770.0" /><text alignment-baseline="middle" fill="#F4F6F7" font-size="15.0" text-anchor="middle" x="575.0" y="795.0" /><rect fill="#1C2833" height="50.0" width="50.0" x="605.0" y="770.0" /><text alignment-baseline="middle" fill="#F4F6F7" font-size="15.0" text-anchor="middle" x="630.0" y="795.0" /><rect fill="#1C2833" height="50.0" width="50.0" x="660.0" y="770.0" /><text alignment-baseline="middle" fill="#F4F6F7" font-size="15.0" text-anchor="middle" x="685.0" y="795.0" /><rect fill="#1C2833" height="50.0" width="50.0" x="715.0" y="770.0" /><text alignment-baseline="middle" fill="#F4F6F7" font-size="15.0" text-anchor="middle" x="740.0" y="795.0" /><rect fill="#1C2833" height="50.0" width="50.0" x="770.0" y="770.0" /><text alignment-baseline="middle" fill="#F4F6F7" font-size="15.0" text-anchor="middle" x="795.0" y="795.0" /></svg>